<?xml version="1.0" encoding="UTF-8" standalone="no"?>
<svg
   width="16"
   height="16"
   fill="currentColor"
   class="bi bi-fast-forward-circle-fill"
   viewBox="0 0 16 16"
   version="1.1"
   id="svg4"
   sodipodi:docname="fast-forward-circle-fill.svg"
   inkscape:version="1.2.2 (1:1.2.2+202305151914+b0a8486541)"
   inkscape:export-filename="fast-forward.png"
   inkscape:export-xdpi="120"
   inkscape:export-ydpi="120"
   xmlns:inkscape="http://www.inkscape.org/namespaces/inkscape"
   xmlns:sodipodi="http://sodipodi.sourceforge.net/DTD/sodipodi-0.dtd"
   xmlns="http://www.w3.org/2000/svg"
   xmlns:svg="http://www.w3.org/2000/svg">
  <defs
     id="defs8" />
  <sodipodi:namedview
     id="namedview6"
     pagecolor="#ffffff"
     bordercolor="#000000"
     borderopacity="0.25"
     inkscape:showpageshadow="2"
     inkscape:pageopacity="0.0"
     inkscape:pagecheckerboard="0"
     inkscape:deskcolor="#d1d1d1"
     showgrid="false"
     inkscape:zoom="14.75"
     inkscape:cx="8"
     inkscape:cy="8"
     inkscape:window-width="1920"
     inkscape:window-height="1043"
     inkscape:window-x="0"
     inkscape:window-y="0"
     inkscape:window-maximized="1"
     inkscape:current-layer="svg4" />
  <path
     d="M8 16A8 8 0 1 0 8 0a8 8 0 0 0 0 16ZM4.79 5.093 8 7.386V5.5a.5.5 0 0 1 .79-.407l3.5 2.5a.5.5 0 0 1 0 .814l-3.5 2.5A.5.5 0 0 1 8 10.5V8.614l-3.21 2.293A.5.5 0 0 1 4 10.5v-5a.5.5 0 0 1 .79-.407Z"
     id="path2"
     style="fill:#ff6600" />
</svg>
