<?xml version="1.0" encoding="UTF-8" standalone="no"?>
<svg
        xmlns:dc="http://purl.org/dc/elements/1.1/"
        xmlns:cc="http://creativecommons.org/ns#"
        xmlns:rdf="http://www.w3.org/1999/02/22-rdf-syntax-ns#"
        xmlns:sodipodi="http://sodipodi.sourceforge.net/DTD/sodipodi-0.dtd"
        xmlns:inkscape="http://www.inkscape.org/namespaces/inkscape"
        xmlns="http://www.w3.org/2000/svg"
        width="128mm"
        height="127.92254mm"
        viewBox="0 0 128 127.92254"
        version="1.1"
        id="svg8"
        inkscape:version="1.0.1 (1.0.1+r73)"
        sodipodi:docname="icon.svg"
        inkscape:export-filename="/home/sourabh/projects/PersonalDailyPlanner/src/in/spbhat/icons/icon.png"
        inkscape:export-xdpi="25.4"
        inkscape:export-ydpi="25.4">
  <defs
          id="defs2"/>
  <sodipodi:namedview
          id="base"
          pagecolor="#ffffff"
          bordercolor="#666666"
          borderopacity="1.0"
          inkscape:pageopacity="0.0"
          inkscape:pageshadow="2"
          inkscape:zoom="0.98994949"
          inkscape:cx="332.29752"
          inkscape:cy="215.55364"
          inkscape:document-units="mm"
          inkscape:current-layer="layer2"
          inkscape:document-rotation="0"
          showgrid="false"
          inkscape:window-width="1600"
          inkscape:window-height="836"
          inkscape:window-x="0"
          inkscape:window-y="27"
          inkscape:window-maximized="1"
          inkscape:object-paths="false"/>
  <metadata
          id="metadata5">
    <rdf:RDF>
      <cc:Work
              rdf:about="">
        <dc:format>image/svg+xml</dc:format>
        <dc:type
                rdf:resource="http://purl.org/dc/dcmitype/StillImage"/>
        <dc:title/>
      </cc:Work>
    </rdf:RDF>
  </metadata>
  <g
          inkscape:groupmode="layer"
          id="layer2"
          inkscape:label="icon"
          transform="translate(0,-0.07745934)">
    <path
            style="fill:#000000;stroke:none;stroke-width:0.264583px;stroke-linecap:butt;stroke-linejoin:miter;stroke-opacity:1"
            d="M 0,128 C 0,128 42.994773,94.644651 73.072491,88.537134 92.196397,84.653875 128,111.4215 128,111.4215 V 128 Z"
            id="path864"
            sodipodi:nodetypes="csccc"/>
    <path
            style="fill:#808080;stroke:none;stroke-width:0.264583px;stroke-linecap:butt;stroke-linejoin:miter;stroke-opacity:1"
            d="m 28.867269,54.076216 c 1.090774,1.312068 -0.292141,31.275016 0.366501,50.525964 0.06151,1.79789 1.184748,3.74879 2.742951,4.64779 1.18757,0.68516 2.910297,0.69508 4.112977,0.0368 1.132453,-0.61984 2.052758,-1.9899 2.05808,-3.28088 0.04376,-10.613867 -0.780325,-27.994878 0.512353,-28.34125 1.671922,-0.44799 6.178453,16.874626 9.591275,25.17778 1.053472,2.56302 8.575248,-0.10056 7.837593,-2.77166 -2.86947,-10.390524 -7.573275,-24.662789 -7.573275,-24.662789 0,0 0.255392,-18.639685 0.303607,-20.04755 0.02227,-0.650375 1.214586,-2.771408 2.020718,-2.604643 1.191907,0.24657 6.358682,8.921613 8.51615,9.799282 1.599379,0.650636 8.072005,-0.572054 17.9065,-0.754862 3.442157,-0.06399 3.707921,-6.885168 -2.014606,-6.885168 -4.267466,0 -12.70461,0.421861 -12.70461,0.421861 0,0 -7.970697,-9.492972 -10.089881,-11.171028 -1.094496,-0.866667 -6.980593,-2.789249 -9.337954,-2.77942 -1.993078,0.0083 -3.53183,2.766731 -3.444772,4.757924 0.304134,6.956145 3.049929,20.561199 3.049929,20.561199 l -3.497252,3.636515 -3.283927,-3.896738 c 0,0 2.455525,-13.810821 2.326111,-20.777665 -0.03346,-1.801456 -1.423015,-4.621162 -3.204691,-4.352843 -3.426321,0.516002 -5.387785,1.644662 -6.849806,1.331156 -1.158631,-0.248449 -6.041924,-4.991434 -7.280218,-6.590073 -1.16302,-1.50146 -3.599032,-7.401698 -7.148075,-13.548821 -1.89626,-3.284418 -7.4803616,0.07629 -5.3750348,3.722827 3.7057198,6.418495 5.9488198,13.586201 7.4520668,15.089448 1.101748,1.101748 11.106673,10.470634 13.00729,12.756844 z"
            id="path884"
            sodipodi:nodetypes="sssssssscssssscssscccssssssss"/>
    <circle
            style="fill:#cccccc;fill-opacity:1;stroke:none;stroke-width:0.529167;stroke-linecap:round;stroke-linejoin:round;stop-color:#000000"
            id="path886"
            cx="39.78759"
            cy="28.938963"
            r="10.830492"/>
    <path
            style="fill:#ececec;stroke:#666666;stroke-width:5;stroke-linecap:round;stroke-linejoin:miter;stroke-miterlimit:4;stroke-dasharray:none;stroke-opacity:1"
            d="M 66.231402,6.7022226 78.002304,84.533564"
            id="path890"
            sodipodi:nodetypes="cc"/>
    <path
            style="fill:#cccccc;stroke:none;stroke-width:0.264583px;stroke-linecap:butt;stroke-linejoin:miter;stroke-opacity:1"
            d="m 70.458493,5.500499 2.46938,15.901169 c 0,0 5.022531,0.574065 7.384955,0.212715 5.038863,-0.770731 8.620217,-4.996318 13.677286,-5.636803 2.019954,-0.25583 6.019006,1.040449 6.019006,1.040449 0,0 -8.539268,-7.0640652 -8.817171,-8.5439179 0,0 2.351721,-3.984204 3.968748,-5.6045086 C 95.825153,2.2038002 97.52506,1.4814563 97.460349,1.2341375 97.315302,0.67978212 94.625539,0.00852907 93.135668,0.08317508 87.910274,0.34497952 82.949389,4.6610047 78.447249,5.6157922 75.265884,6.2904773 70.458493,5.500499 70.458493,5.500499 Z"
            id="path845"
            sodipodi:nodetypes="ccsscsssssc"/>
  </g>
</svg>
