<?xml version="1.0" encoding="UTF-8" standalone="no"?>
<!-- Created with Inkscape (http://www.inkscape.org/) -->

<svg
   width="64"
   height="64"
   viewBox="0 0 16.933333 16.933333"
   version="1.1"
   id="svg1"
   inkscape:version="1.3.2 (1:1.3.2+202311252150+091e20ef0f)"
   sodipodi:docname="info_widget_icon.svg"
   inkscape:export-filename="info_widget_icon_64.png"
   inkscape:export-xdpi="96"
   inkscape:export-ydpi="96"
   xmlns:inkscape="http://www.inkscape.org/namespaces/inkscape"
   xmlns:sodipodi="http://sodipodi.sourceforge.net/DTD/sodipodi-0.dtd"
   xmlns="http://www.w3.org/2000/svg"
   xmlns:svg="http://www.w3.org/2000/svg">
  <sodipodi:namedview
     id="namedview1"
     pagecolor="#ffffff"
     bordercolor="#999999"
     borderopacity="1"
     inkscape:showpageshadow="2"
     inkscape:pageopacity="0"
     inkscape:pagecheckerboard="0"
     inkscape:deskcolor="#d1d1d1"
     inkscape:document-units="mm"
     inkscape:zoom="4.5052463"
     inkscape:cx="58.043441"
     inkscape:cy="72.360084"
     inkscape:window-width="1920"
     inkscape:window-height="1136"
     inkscape:window-x="0"
     inkscape:window-y="1107"
     inkscape:window-maximized="1"
     inkscape:current-layer="layer1" />
  <defs
     id="defs1" />
  <g
     inkscape:label="Layer 1"
     inkscape:groupmode="layer"
     id="layer1">
    <path
       id="path1"
       style="stroke-width:4;stroke-linejoin:round"
       d="M 8.4666667 0 A 8.4666662 8.4666662 0 0 0 0 8.4666667 A 8.4666662 8.4666662 0 0 0 8.4666667 16.933333 A 8.4666662 8.4666662 0 0 0 16.933333 8.4666667 A 8.4666662 8.4666662 0 0 0 8.4666667 0 z M 9.200472 3.0266886 C 9.4262494 3.0266886 9.6142604 3.0929059 9.7647786 3.2246094 C 9.9152969 3.3469055 9.9906047 3.5394617 9.9906047 3.8028687 C 9.9906047 4.1697569 9.9011444 4.4285304 9.722404 4.5790487 C 9.5436636 4.7201595 9.3511073 4.790922 9.1441447 4.790922 C 8.9089599 4.790922 8.7158869 4.7297668 8.5653687 4.6074707 C 8.4242578 4.4757672 8.354012 4.278149 8.354012 4.014742 C 8.354012 3.7137055 8.428803 3.4736297 8.5793213 3.2948893 C 8.7392469 3.1161489 8.9464725 3.0266886 9.200472 3.0266886 z M 6.9851034 6.2016886 L 9.5110474 6.2016886 L 8.551416 10.731645 C 8.5326014 10.835126 8.5042966 10.985742 8.4666667 11.183297 C 8.4290374 11.380852 8.3961873 11.583015 8.3679647 11.789978 C 8.34915 11.99694 8.3395426 12.166254 8.3395426 12.297957 C 8.3395426 12.777734 8.4947034 13.017293 8.8051473 13.017293 C 8.9650729 13.017293 9.129841 12.984445 9.299174 12.918591 C 9.468507 12.843332 9.6423655 12.753872 9.821106 12.650391 L 10.075354 13.059668 C 9.8683913 13.238408 9.5863749 13.426936 9.228894 13.624491 C 8.8808206 13.812639 8.5280416 13.906645 8.1705607 13.906645 C 7.7942651 13.906645 7.5026414 13.774727 7.2956787 13.51132 C 7.0981235 13.247913 6.999056 12.933046 6.999056 12.566158 C 6.999056 12.368603 7.017754 12.133072 7.0553833 11.860258 C 7.0930126 11.587444 7.1354701 11.314518 7.1825073 11.041703 C 7.2295446 10.759482 7.2720021 10.529013 7.3096313 10.350273 L 7.8599854 7.7540487 C 7.8882073 7.6129378 7.90236 7.4906273 7.90236 7.387146 C 7.90236 7.1331465 7.822507 6.9734404 7.6625814 6.9075887 C 7.5120635 6.8323296 7.3048376 6.7944173 7.0414307 6.7944173 L 6.8579793 6.7944173 L 6.9851034 6.2016886 z " />
  </g>
</svg>
