<?xml version="1.0" encoding="UTF-8" standalone="no"?>
<svg
   width="16"
   height="16"
   fill="currentColor"
   class="bi bi-list-ol"
   viewBox="0 0 16 16"
   version="1.1"
   id="svg6"
   sodipodi:docname="list-ol.svg"
   inkscape:export-filename="notes.png"
   inkscape:export-xdpi="384"
   inkscape:export-ydpi="384"
   inkscape:version="1.2.2 (1:1.2.2+202305151914+b0a8486541)"
   xmlns:inkscape="http://www.inkscape.org/namespaces/inkscape"
   xmlns:sodipodi="http://sodipodi.sourceforge.net/DTD/sodipodi-0.dtd"
   xmlns="http://www.w3.org/2000/svg"
   xmlns:svg="http://www.w3.org/2000/svg">
  <defs
     id="defs10" />
  <sodipodi:namedview
     id="namedview8"
     pagecolor="#ffffff"
     bordercolor="#000000"
     borderopacity="0.25"
     inkscape:showpageshadow="2"
     inkscape:pageopacity="0.0"
     inkscape:pagecheckerboard="0"
     inkscape:deskcolor="#d1d1d1"
     showgrid="false"
     inkscape:zoom="14.75"
     inkscape:cx="-3.8644068"
     inkscape:cy="8.0338983"
     inkscape:window-width="1920"
     inkscape:window-height="1136"
     inkscape:window-x="0"
     inkscape:window-y="1107"
     inkscape:window-maximized="1"
     inkscape:current-layer="svg6" />
  <path
     fill-rule="evenodd"
     d="M5 11.5a.5.5 0 0 1 .5-.5h9a.5.5 0 0 1 0 1h-9a.5.5 0 0 1-.5-.5zm0-4a.5.5 0 0 1 .5-.5h9a.5.5 0 0 1 0 1h-9a.5.5 0 0 1-.5-.5zm0-4a.5.5 0 0 1 .5-.5h9a.5.5 0 0 1 0 1h-9a.5.5 0 0 1-.5-.5z"
     id="path2" />
  <path
     d="M1.713 11.865v-.474H2c.217 0 .363-.137.363-.317 0-.185-.158-.31-.361-.31-.223 0-.367.152-.373.31h-.59c.016-.467.373-.787.986-.787.588-.002.954.291.957.703a.595.595 0 0 1-.492.594v.033a.615.615 0 0 1 .569.631c.003.533-.502.8-1.051.8-.656 0-1-.37-1.008-.794h.582c.008.178.186.306.422.309.254 0 .424-.145.422-.35-.002-.195-.155-.348-.414-.348h-.3zm-.004-4.699h-.604v-.035c0-.408.295-.844.958-.844.583 0 .96.326.96.756 0 .389-.257.617-.476.848l-.537.572v.03h1.054V9H1.143v-.395l.957-.99c.138-.142.293-.304.293-.508 0-.18-.147-.32-.342-.32a.33.33 0 0 0-.342.338v.041zM2.564 5h-.635V2.924h-.031l-.598.42v-.567l.629-.443h.635V5z"
     id="path4" />
</svg>
